<?xml version="1.0" encoding="UTF-8"?>
<svg id="Layer_1" data-name="Layer 1" xmlns="http://www.w3.org/2000/svg" xmlns:xlink="http://www.w3.org/1999/xlink" viewBox="0 0 1278.68 595.28">
  <defs>
    <style>
      .cls-1 {
        fill: url(#linear-gradient);
      }

      .cls-1, .cls-2, .cls-3, .cls-4, .cls-5, .cls-6, .cls-7, .cls-8, .cls-9, .cls-10, .cls-11 {
        stroke-width: 0px;
      }

      .cls-2 {
        fill: url(#linear-gradient-6);
      }

      .cls-3 {
        fill: #e6e7e8;
      }

      .cls-4 {
        fill: url(#linear-gradient-5);
      }

      .cls-5 {
        fill: #273170;
      }

      .cls-6 {
        fill: #fff;
      }

      .cls-7 {
        fill: url(#linear-gradient-2);
      }

      .cls-8 {
        fill: url(#linear-gradient-3);
      }

      .cls-9 {
        fill: #272a6b;
      }

      .cls-10 {
        fill: url(#linear-gradient-4);
      }

      .cls-11 {
        fill: #a98866;
      }
    </style>
    <linearGradient id="linear-gradient" x1="874.84" y1="303.35" x2="1077.67" y2="303.35" gradientUnits="userSpaceOnUse">
      <stop offset="0" stop-color="#27aae1"/>
      <stop offset="1" stop-color="#262262"/>
    </linearGradient>
    <linearGradient id="linear-gradient-2" x1="953.4" y1="245.96" x2="1048.23" y2="245.96" xlink:href="#linear-gradient"/>
    <linearGradient id="linear-gradient-3" x1="879.81" y1="368.55" x2="1128.62" y2="368.55" gradientUnits="userSpaceOnUse">
      <stop offset="0" stop-color="#a98866"/>
      <stop offset="1" stop-color="#e5c78d"/>
    </linearGradient>
    <linearGradient id="linear-gradient-4" x1="946.19" y1="329.74" x2="1040.87" y2="329.74" xlink:href="#linear-gradient-3"/>
    <linearGradient id="linear-gradient-5" x1="946.04" y1="343.4" x2="946.34" y2="343.4" xlink:href="#linear-gradient-3"/>
    <linearGradient id="linear-gradient-6" x1="742.1" y1="395.8" x2="842" y2="395.8" xlink:href="#linear-gradient"/>
  </defs>
  <g>
    <path class="cls-3" d="m989.42,283.01l-14.04,7.88-21.98-31.31c17.07,7.51,28.37,7.5,34.66,6.32l1.36,17.11Z"/>
    <polygon class="cls-3" points="946.54 343.09 946.19 343.29 946.04 343.07 946.54 343.09"/>
    <path class="cls-3" d="m982.19,367.98l-13.32,7.6-22.53-32.07c16.92,7.38,28.14,7.36,34.39,6.18l1.46,18.3Z"/>
    <path class="cls-1" d="m1077.67,258.17l-164.18,93.41s-11.91,9.23-38.65-4.3l100.54-56.39,14.04-7.88,49.95-28.01s8.29-5.32,21.88-1.65l16.42,4.81Z"/>
    <path class="cls-7" d="m1048.23,231.84l-54.07,31.98s-1.96,1.3-6.1,2.07c-6.29,1.18-17.59,1.19-34.66-6.32l55.48-31.14s5.94-4.81,17.27-2.27l22.08,5.67Z"/>
    <path class="cls-8" d="m1128.62,309.46l-210.16,121.22s-11.91,9.23-38.65-4.3l89.06-50.8,13.32-7.6,108.14-61.68s8.3-5.33,21.88-1.65l16.42,4.81Z"/>
    <path class="cls-10" d="m1040.87,315.63l-54.07,31.99s-1.95,1.29-6.08,2.07c-6.24,1.18-17.47,1.21-34.39-6.18l-.15-.22.35-.2,54.98-30.86s5.94-4.81,17.26-2.26l22.09,5.66Z"/>
    <path class="cls-4" d="m946.34,343.51c-.1-.04-.2-.09-.3-.13l.15-.08.15.22Z"/>
  </g>
  <rect class="cls-2" x="742.1" y="376.5" width="99.9" height="38.62"/>
  <path class="cls-9" d="m122.42,308.91l.57-3.94c1.56.57,3.27.88,5.2.88,4.31,0,6.91-2.07,6.91-8.87v-25.05h4.78v24.63c0,7.36-2.7,13.07-12.05,13.07-1.92,0-3.84-.31-5.4-.73Z"/>
  <path class="cls-9" d="m206.12,261.62c-1.56,0-2.76,1.25-2.76,2.75,0,1.62,1.2,2.8,2.76,2.8s2.75-1.25,2.75-2.8-1.25-2.75-2.75-2.75Zm-3.84-5.96c-1.51,0-2.65,1.19-2.65,2.69s1.14,2.64,2.65,2.64,2.6-1.19,2.6-2.64-1.14-2.69-2.6-2.69Zm-3.84,5.96c-1.56,0-2.76,1.25-2.76,2.75,0,1.62,1.2,2.8,2.76,2.8s2.75-1.25,2.75-2.8-1.19-2.75-2.75-2.75Z"/>
  <path class="cls-9" d="m223.48,261.62c-1.57,0-2.82,1.25-2.82,2.75,0,1.62,1.25,2.8,2.82,2.8s2.7-1.25,2.7-2.8-1.2-2.75-2.7-2.75Zm-7.7,0c-1.56,0-2.75,1.25-2.75,2.75,0,1.62,1.19,2.8,2.75,2.8s2.76-1.25,2.76-2.8-1.25-2.75-2.76-2.75Z"/>
  <path class="cls-9" d="m266.33,270.18l-4.67.82c.99,3.79,1.72,8.67,1.72,14.31,0,1.93-.16,4.99-.42,7.21h-2.4c-5.51,0-6.86-1.66-6.86-7.05v-12.5h-4.62v12.71c0,4.41-1.1,7.2-4.84,7.2s-4.88-2.75-4.88-7.2v-10.63h-4.78v10.21c0,5.6-1.66,7.26-5.36,7.26h-6.39v-20.59h-4.78v20.59h-12.57v-20.59h-4.78v20.59h-12v-8.86c0-7.94-3.64-12.29-11.43-12.29-8.26,0-12.68,5.91-12.68,13.54,0,6.12-1.92,7.62-4.57,7.62h-5.92v-32.78h-4.78v36.56h10.49c3.32,0,5.77-1.56,6.91-4.41,1.6,2.8,4.82,4.41,10.8,4.41h51.65c3.99,0,6.07-1.56,7.01-4.15.78,2.7,3.17,4.57,7.33,4.57,3.38,0,6.29-1.6,7.33-4.57,1.08,2.91,3.79,4.15,8.73,4.15h7.74c.52-3.47.83-7.88.83-11.4,0-5.66-.78-10.84-1.82-14.73Zm-82.29,22.34h-5.87c-6.29,0-8.78-2.6-8.78-8.09,0-5.81,2.91-9.28,7.54-9.28s7.12,2.6,7.12,9.28v8.09Z"/>
  <path class="cls-9" d="m286.54,306.63c-2.39,0-3.43-.73-3.43-1.87,0-1.04.89-1.71,2.45-1.71.88,0,1.81.16,2.44.31l.47-2.91c-.68-.15-1.72-.25-2.86-.25-4.05,0-6.07,2.12-6.07,4.66,0,.89.42,1.62.93,1.92-.83-.15-1.87-.15-3.01-.15v2.85h12.15v-2.85h-3.07Zm-7.17-47.18l-4.78.67,8.26,27.75h4.82l-8.31-28.41Z"/>
  <polygon class="cls-9" points="314.7 259.75 314.7 296.31 276.83 296.31 276.83 292.52 292.89 292.52 292.89 259.75 297.71 259.75 297.71 292.52 309.92 292.52 309.92 259.75 314.7 259.75"/>
  <path class="cls-9" d="m351.17,261.62c-1.56,0-2.8,1.25-2.8,2.75,0,1.62,1.25,2.8,2.8,2.8s2.7-1.25,2.7-2.8-1.19-2.75-2.7-2.75Zm-7.69,0c-1.56,0-2.75,1.25-2.75,2.75,0,1.62,1.19,2.8,2.75,2.8s2.76-1.25,2.76-2.8-1.25-2.75-2.76-2.75Z"/>
  <path class="cls-9" d="m375.28,301.28c-1.56,0-2.8,1.25-2.8,2.75,0,1.62,1.25,2.8,2.8,2.8s2.7-1.25,2.7-2.8-1.19-2.75-2.7-2.75Zm-7.69,0c-1.56,0-2.76,1.25-2.76,2.75,0,1.62,1.2,2.8,2.76,2.8s2.75-1.25,2.75-2.8-1.25-2.75-2.75-2.75Z"/>
  <path class="cls-9" d="m390.66,259.75v32.78h-12.27v-20.59h-4.78v20.59h-15.43v-19.34s-4.73-1.81-10.44-1.81c-8.89,0-13.09,6.01-13.09,12.86,0,7.36,3.64,12.08,13.61,12.08h47.18v-36.56h-4.78Zm-37.15,32.78h-4.57c-6.71,0-9.46-2.91-9.46-8.82,0-5.14,2.92-8.55,7.74-8.55,3.74,0,6.29,1.19,6.29,1.19v16.18Z"/>
  <path class="cls-9" d="m476.69,261.62c-1.56,0-2.76,1.25-2.76,2.75,0,1.62,1.2,2.8,2.76,2.8s2.76-1.25,2.76-2.8-1.25-2.75-2.76-2.75Zm-3.84-5.96c-1.51,0-2.65,1.19-2.65,2.69s1.14,2.64,2.65,2.64,2.6-1.19,2.6-2.64-1.14-2.69-2.6-2.69Zm-3.84,5.96c-1.56,0-2.76,1.25-2.76,2.75,0,1.62,1.2,2.8,2.76,2.8s2.75-1.25,2.75-2.8-1.19-2.75-2.75-2.75Z"/>
  <path class="cls-9" d="m501.78,259.75v32.78h-12.31c.21-2.54.37-5.29.37-7.62,0-5.66-.78-10.84-1.82-14.73l-4.67.82c.99,3.79,1.72,8.67,1.72,14.31,0,1.93-.16,4.99-.42,7.21h-2.39c-5.52,0-6.86-1.66-6.86-7.05v-12.5h-4.63v12.71c0,4.41-1.1,7.2-4.84,7.2s-4.88-2.75-4.88-7.2v-10.63h-4.78v10.21c0,5.6-1.66,7.26-5.36,7.26h-6.23v-8.86c0-7.94-3.64-12.29-11.43-12.29-8.26,0-12.68,5.91-12.68,13.54,0,6.12-1.92,7.62-4.57,7.62h-5.92v-32.78h-4.78v36.56h10.49c3.32,0,5.77-1.56,6.91-4.41,1.62,2.8,4.84,4.41,10.8,4.41h17.36c3.99,0,6.08-1.56,7.02-4.15.77,2.7,3.16,4.57,7.32,4.57,3.38,0,6.29-1.6,7.33-4.57,1.08,2.91,3.8,4.15,8.73,4.15h25.31v-36.56h-4.79Zm-61.77,32.78h-5.87c-6.28,0-8.77-2.6-8.77-8.09,0-5.81,2.91-9.28,7.52-9.28s7.12,2.6,7.12,9.28v8.09Z"/>
  <path class="cls-9" d="m516.44,259.75h4.78v36.56h-4.78v-36.56Z"/>
  <path class="cls-9" d="m541.53,292.52h16.68c-.16-9.49-3.9-14.78-13.09-17.58l1.19-4.05c11.27,3.47,16.62,9.8,16.62,22.82v2.59h-21.4v-3.79Z"/>
  <path class="cls-9" d="m568.86,308.65l.31-3.99s4.36.99,8.31.99c5.66,0,9.92-2.13,9.92-8.09v-1.24h-5.25c-9.97,0-13.61-4.72-13.61-12.08,0-6.84,4.21-12.86,13.09-12.86,5.71,0,10.44,1.82,10.44,1.82v24.11c0,6.07-3.95,12.13-15.12,12.13-4,0-8.1-.78-8.1-.78Zm18.55-32.3s-2.55-1.19-6.29-1.19c-4.83,0-7.74,3.42-7.74,8.56,0,5.91,2.75,8.81,9.45,8.81h4.57v-16.18Z"/>
  <path class="cls-9" d="m666.27,259.75v36.56h-66.96v-3.79h16.68c-.16-9.49-3.9-14.77-13.1-17.58l1.2-4.05c10.91,3.37,16.31,9.44,16.62,21.63h24.73c.21-1.81.37-3.64.37-5.34,0-7.83-2.86-11.67-11.38-11.67-2.08,0-3.84.1-5.77.37v-3.74c1.72-.25,3.9-.42,6.19-.42,11.43,0,15.68,5.24,15.68,15.1,0,1.6-.1,3.52-.31,5.7h11.28v-32.78h4.78Z"/>
  <path class="cls-9" d="m676.15,259.75h4.78v36.56h-4.78v-36.56Z"/>
  <path class="cls-9" d="m719.99,296.31c-13.14,0-18.23-5.24-18.23-15.09,0-3.11.78-6.59,1.71-8.61l5.09-.88c-1.19,2.44-1.97,6.02-1.97,8.92,0,7.88,3.12,11.87,13.97,11.87h4.41v-20.17s4.57-.99,9.51-.99c8.68,0,11.59,4.25,11.59,11.36v6.95h-4.68v-6.33c0-5.91-2.13-8.19-7.38-8.19-2.13,0-4.36.41-4.36.41v20.74h-9.66Z"/>
  <path class="cls-9" d="m790.86,261.62c-1.56,0-2.8,1.25-2.8,2.75,0,1.62,1.25,2.8,2.8,2.8s2.7-1.25,2.7-2.8-1.19-2.75-2.7-2.75Zm-7.69,0c-1.56,0-2.76,1.25-2.76,2.75,0,1.62,1.2,2.8,2.76,2.8s2.76-1.25,2.76-2.8-1.26-2.75-2.76-2.75Z"/>
  <path class="cls-9" d="m804.79,260.74c-1.56,0-2.82,1.29-2.82,2.85s1.26,2.8,2.82,2.8,2.85-1.25,2.85-2.8-1.29-2.85-2.85-2.85Z"/>
  <path class="cls-9" d="m830.4,271.37c-8.26,0-12.68,5.91-12.68,13.54,0,6.12-1.92,7.62-4.57,7.62h-5.97v-20.59h-4.78v20.59h-12.16v-20.59h-4.78v20.59h-10.86c-.31-12.19-5.71-18.26-16.62-21.63l-1.2,4.05c9.2,2.8,12.94,8.09,13.09,17.58h-16.68v3.79h59.75c3.32,0,5.77-1.56,6.91-4.41,1.62,2.8,4.84,4.41,10.8,4.41h11.17v-12.65c0-7.94-3.64-12.29-11.43-12.29Zm6.75,21.16h-5.87c-6.28,0-8.77-2.6-8.77-8.09,0-5.81,2.91-9.28,7.52-9.28s7.12,2.6,7.12,9.28v8.09Z"/>
  <path class="cls-11" d="m143.06,352.32l-10.43-17.21c-1.16-1.91-2.07-3.58-2.83-5.29.16,2.82.28,10.45.28,15.03v7.47h-3.54v-26.83h4.86l10.31,16.89c1.04,1.75,2.07,3.66,2.95,5.45-.12-3.34-.28-10.85-.28-15.5v-6.84h3.54v26.83h-4.86Z"/>
  <path class="cls-11" d="m164.96,352.72c-8.08,0-11.99-5.37-11.99-13.48,0-8.98,5.73-14.15,12.74-14.15,8.09,0,11.99,5.37,11.99,13.48,0,8.98-5.77,14.15-12.74,14.15Zm.4-24.41c-4.66,0-8.48,3.74-8.48,10.37s2.75,10.77,8.44,10.77c4.66,0,8.48-3.7,8.48-10.33s-2.79-10.81-8.44-10.81Z"/>
  <path class="cls-11" d="m195.7,352.32l-8.8-12h-.48v12h-3.66v-26.83c1.83-.12,3.78-.16,6.73-.16,5.3,0,9.12,1.87,9.12,7,0,4.57-3.62,7.23-7.89,7.55.8.95,1.63,1.99,2.31,2.86l7.33,9.58h-4.66Zm-6.85-24.01c-.92,0-1.71.04-2.43.08v9.14c.4.04,1.2.08,2.27.08,3.86,0,6.09-1.95,6.09-4.81,0-3.22-2.03-4.49-5.93-4.49Z"/>
  <path class="cls-11" d="m212.31,328.55v23.77h-3.66v-23.77h-7.73v-3.06h19.16v3.06h-7.77Z"/>
  <path class="cls-11" d="m241.5,352.32v-12.36h-13.7v12.36h-3.66v-26.83h3.66v11.37h13.7v-11.37h3.66v26.83h-3.66Z"/>
  <path class="cls-11" d="m252.68,352.32v-26.83h13.82v3.02h-10.16v8.51h9.68v2.94h-9.68v9.3h10.16v3.06h-13.82Z"/>
  <path class="cls-11" d="m289.16,352.32l-10.43-17.21c-1.16-1.91-2.07-3.58-2.83-5.29.16,2.82.28,10.45.28,15.03v7.47h-3.54v-26.83h4.86l10.31,16.89c1.04,1.75,2.07,3.66,2.95,5.45-.12-3.34-.28-10.85-.28-15.5v-6.84h3.54v26.83h-4.86Z"/>
  <path class="cls-11" d="m317.36,352.44c-1.95,0-4.22-.08-6.85-.12v-26.83c1.95-.04,4.62-.12,7.85-.12,5.77,0,8.6,2.42,8.6,6.44,0,2.82-1.67,5.25-4.62,6.24v.08c3.27.44,5.46,2.86,5.46,6.16,0,3.66-2.47,8.15-10.43,8.15Zm.4-24.17c-1.27,0-2.55.04-3.58.08v8.7c.76.04,1.47.04,2.43.04,4.42,0,6.53-1.75,6.53-4.69,0-2.38-1.27-4.13-5.38-4.13Zm-1.07,11.57c-.44,0-1.87,0-2.51.04v9.42c.72.08,2.27.2,3.42.2,4.38,0,6.33-2.19,6.33-5.01,0-3.38-2.87-4.65-7.25-4.65Z"/>
  <path class="cls-11" d="m343.76,352.72c-8.08,0-11.99-5.37-11.99-13.48,0-8.98,5.73-14.15,12.74-14.15,8.09,0,11.99,5.37,11.99,13.48,0,8.98-5.77,14.15-12.74,14.15Zm.4-24.41c-4.66,0-8.48,3.74-8.48,10.37s2.75,10.77,8.44,10.77c4.66,0,8.48-3.7,8.48-10.33s-2.79-10.81-8.44-10.81Z"/>
  <path class="cls-11" d="m374.5,352.32l-8.8-12h-.48v12h-3.66v-26.83c1.83-.12,3.78-.16,6.73-.16,5.3,0,9.12,1.87,9.12,7,0,4.57-3.62,7.23-7.88,7.55.8.95,1.63,1.99,2.31,2.86l7.33,9.58h-4.66Zm-6.85-24.01c-.92,0-1.71.04-2.43.08v9.14c.4.04,1.19.08,2.27.08,3.86,0,6.09-1.95,6.09-4.81,0-3.22-2.03-4.49-5.93-4.49Z"/>
  <path class="cls-11" d="m390.82,352.48c-2.71,0-4.82-.16-6.81-.16v-26.79c2.07-.04,5.1-.16,8.04-.16,8.6,0,13.74,4.01,13.74,13.24s-6.17,13.87-14.97,13.87Zm.88-24.13c-1.39,0-3.03.08-4.02.12v20.67c1,.16,2.47.24,3.54.24,6.29,0,10.71-3.26,10.71-10.53,0-6.84-3.26-10.49-10.23-10.49Z"/>
  <path class="cls-11" d="m411.01,352.32v-26.83h13.82v3.02h-10.16v8.51h9.68v2.94h-9.68v9.3h10.16v3.06h-13.82Z"/>
  <path class="cls-11" d="m443.91,352.32l-8.8-12h-.48v12h-3.66v-26.83c1.83-.12,3.78-.16,6.73-.16,5.3,0,9.12,1.87,9.12,7,0,4.57-3.62,7.23-7.88,7.55.8.95,1.63,1.99,2.31,2.86l7.33,9.58h-4.66Zm-6.85-24.01c-.92,0-1.71.04-2.43.08v9.14c.4.04,1.19.08,2.27.08,3.86,0,6.09-1.95,6.09-4.81,0-3.22-2.03-4.49-5.93-4.49Z"/>
  <path class="cls-11" d="m457.6,352.68c-2.19,0-4.22-.28-5.89-.76l.44-3.5c1.71.68,3.66,1.07,5.66,1.07,3.11,0,5.81-1.27,5.81-4.57,0-6.04-12.15-3.66-12.15-12.2,0-4.41,3.35-7.59,9.4-7.59,1.55,0,3.35.16,4.86.52l-.44,3.22c-1.43-.44-3.07-.71-4.62-.71-3.66,0-5.42,1.67-5.42,4.17,0,5.76,12.31,3.7,12.31,12.12,0,4.81-3.94,8.23-9.96,8.23Z"/>
  <path class="cls-11" d="m482.57,352.32v-26.83h3.66v26.83h-3.66Z"/>
  <path class="cls-11" d="m510.29,352.32l-10.43-17.21c-1.16-1.91-2.07-3.58-2.83-5.29.16,2.82.28,10.45.28,15.03v7.47h-3.54v-26.83h4.86l10.31,16.89c1.04,1.75,2.07,3.66,2.95,5.45-.12-3.34-.28-10.85-.28-15.5v-6.84h3.54v26.83h-4.86Z"/>
  <path class="cls-11" d="m532.75,352.32h-4.1l-9.68-26.83h4.06l6.01,17.25c.52,1.55,1.23,3.66,1.71,5.49h.08c.48-1.83,1.15-3.86,1.87-5.76l6.17-16.97h3.78l-9.92,26.83Z"/>
  <path class="cls-11" d="m546.52,352.32v-26.83h13.82v3.02h-10.16v8.51h9.68v2.94h-9.68v9.3h10.16v3.06h-13.82Z"/>
  <path class="cls-11" d="m571.25,352.68c-2.19,0-4.22-.28-5.89-.76l.44-3.5c1.71.68,3.66,1.07,5.66,1.07,3.11,0,5.81-1.27,5.81-4.57,0-6.04-12.15-3.66-12.15-12.2,0-4.41,3.35-7.59,9.4-7.59,1.55,0,3.35.16,4.86.52l-.44,3.22c-1.43-.44-3.07-.71-4.62-.71-3.66,0-5.42,1.67-5.42,4.17,0,5.76,12.31,3.7,12.31,12.12,0,4.81-3.94,8.23-9.96,8.23Z"/>
  <path class="cls-11" d="m593.87,328.55v23.77h-3.66v-23.77h-7.73v-3.06h19.16v3.06h-7.77Z"/>
  <path class="cls-11" d="m630.23,352.32l-2.27-15.54c-.4-2.9-.68-5.21-.84-6.8h-.08c-.32,1.31-.76,3.1-1.39,5.05l-5.73,17.29h-3.9l-5.46-16.18c-.72-2.15-1.31-4.29-1.71-6.16h-.08c-.12,2.23-.36,4.49-.72,7.12l-1.83,15.23h-3.74l3.94-26.83h4.46l5.7,16.93c.48,1.35,1.08,3.5,1.55,5.33h.04c.48-1.87.96-3.54,1.47-5.09l5.82-17.17h4.54l4.06,26.83h-3.82Z"/>
  <path class="cls-11" d="m639.35,352.32v-26.83h13.82v3.02h-10.16v8.51h9.68v2.94h-9.68v9.3h10.16v3.06h-13.82Z"/>
  <path class="cls-11" d="m675.82,352.32l-10.43-17.21c-1.15-1.91-2.07-3.58-2.83-5.29.16,2.82.28,10.45.28,15.03v7.47h-3.54v-26.83h4.86l10.32,16.89c1.03,1.75,2.07,3.66,2.95,5.45-.12-3.34-.28-10.85-.28-15.5v-6.84h3.54v26.83h-4.86Z"/>
  <path class="cls-11" d="m696.17,328.55v23.77h-3.66v-23.77h-7.73v-3.06h19.16v3.06h-7.77Z"/>
  <path class="cls-11" d="m721.38,328.51v8.7h9.52v2.94h-9.52v12.16h-3.66v-26.83h13.7v3.02h-10.04Z"/>
  <path class="cls-11" d="m746.62,352.72c-8.09,0-11.99-5.37-11.99-13.48,0-8.98,5.73-14.15,12.74-14.15,8.09,0,11.99,5.37,11.99,13.48,0,8.98-5.77,14.15-12.74,14.15Zm.4-24.41c-4.66,0-8.48,3.74-8.48,10.37s2.75,10.77,8.44,10.77c4.66,0,8.48-3.7,8.48-10.33s-2.79-10.81-8.44-10.81Z"/>
  <path class="cls-11" d="m777.37,352.32l-8.8-12h-.48v12h-3.66v-26.83c1.83-.12,3.78-.16,6.73-.16,5.3,0,9.12,1.87,9.12,7,0,4.57-3.62,7.23-7.88,7.55.8.95,1.63,1.99,2.31,2.86l7.33,9.58h-4.66Zm-6.85-24.01c-.92,0-1.71.04-2.43.08v9.14c.4.04,1.19.08,2.27.08,3.86,0,6.09-1.95,6.09-4.81,0-3.22-2.03-4.49-5.93-4.49Z"/>
  <path class="cls-11" d="m796.52,352.72c-8.4,0-10.08-4.65-10.08-9.42v-17.81h3.66v17.53c0,3.7,1.23,6.68,6.65,6.68,4.7,0,6.89-1.95,6.89-7.35v-16.85h3.58v16.58c0,7.04-3.7,10.65-10.71,10.65Z"/>
  <path class="cls-11" d="m839.93,352.32l-2.27-15.54c-.4-2.9-.68-5.21-.84-6.8h-.08c-.32,1.31-.76,3.1-1.39,5.05l-5.73,17.29h-3.9l-5.46-16.18c-.72-2.15-1.32-4.29-1.71-6.16h-.08c-.12,2.23-.36,4.49-.72,7.12l-1.83,15.23h-3.74l3.94-26.83h4.46l5.69,16.93c.48,1.35,1.08,3.5,1.55,5.33h.04c.48-1.87.96-3.54,1.47-5.09l5.81-17.17h4.54l4.06,26.83h-3.82Z"/>
  <g>
    <path class="cls-5" d="m661.96,409.06l-2.31-6.5h-11.83l-2.31,6.5h-3.87l10.1-27.77h4.29l10.18,27.77h-4.25Zm-7.01-19.91c-.49-1.36-.87-2.59-1.2-3.78h-.08c-.33,1.19-.7,2.43-1.16,3.7l-3.75,10.49h9.89l-3.71-10.41Z"/>
    <path class="cls-5" d="m683.48,409.06l-9.11-12.42h-.49v12.42h-3.79v-27.77c1.9-.12,3.92-.16,6.97-.16,5.48,0,9.44,1.93,9.44,7.24,0,4.73-3.75,7.49-8.16,7.82.82.99,1.69,2.06,2.39,2.96l7.59,9.91h-4.82Zm-7.09-24.85c-.95,0-1.77.04-2.52.08v9.46c.41.04,1.24.08,2.35.08,4,0,6.31-2.02,6.31-4.98,0-3.33-2.1-4.65-6.14-4.65Z"/>
    <path class="cls-5" d="m709.82,409.06l-2.31-6.5h-11.83l-2.31,6.5h-3.87l10.1-27.77h4.29l10.18,27.77h-4.25Zm-7.01-19.91c-.49-1.36-.87-2.59-1.2-3.78h-.08c-.33,1.19-.7,2.43-1.16,3.7l-3.75,10.49h9.89l-3.71-10.41Z"/>
    <path class="cls-5" d="m731.34,409.06l-9.11-12.42h-.49v12.42h-3.79v-27.77c1.9-.12,3.92-.16,6.97-.16,5.48,0,9.44,1.93,9.44,7.24,0,4.73-3.75,7.49-8.16,7.82.82.99,1.69,2.06,2.39,2.96l7.59,9.91h-4.82Zm-7.09-24.85c-.95,0-1.77.04-2.52.08v9.46c.41.04,1.24.08,2.35.08,4,0,6.31-2.02,6.31-4.98,0-3.33-2.1-4.65-6.14-4.65Z"/>
    <path class="cls-6" d="m749.75,409.06v-3.01l5.18-5.94c4.65-5.29,5.83-8.02,5.83-10.91,0-2.6-1.55-4.72-4.81-4.72-1.79,0-3.83.69-5.38,1.67l-.53-3.34c1.88-.94,4.08-1.59,6.89-1.59,5.14,0,7.83,3.22,7.83,7.41,0,3.78-1.75,7.24-6.69,12.82l-3.63,4.23v.04c2.45-.12,6.69-.16,11.34-.16v3.5h-16.03Z"/>
    <path class="cls-6" d="m781.44,409.42c-5.87,0-9.67-3.87-9.67-13.84s4.61-14.33,10.28-14.33,9.67,3.83,9.67,13.8-4.61,14.37-10.28,14.37Zm.37-25.11c-3.47,0-6.12,2.97-6.12,10.95s2.08,11.07,6.04,11.07c3.47,0,6.08-2.97,6.08-10.95s-2.04-11.07-6-11.07Z"/>
    <path class="cls-6" d="m796.9,409.06v-3.01l5.18-5.94c4.65-5.29,5.83-8.02,5.83-10.91,0-2.6-1.55-4.72-4.81-4.72-1.79,0-3.83.69-5.38,1.67l-.53-3.34c1.88-.94,4.08-1.59,6.89-1.59,5.14,0,7.83,3.22,7.83,7.41,0,3.78-1.75,7.24-6.69,12.82l-3.63,4.23v.04c2.45-.12,6.69-.16,11.34-.16v3.5h-16.03Z"/>
    <path class="cls-6" d="m823.77,409.38c-1.67,0-3.38-.16-4.45-.45l.41-3.3c1.1.37,2.69.57,4.24.57,4.08,0,6.53-2.28,6.53-5.21s-2.45-4.8-7.18-4.8c-.94,0-1.75.08-2.53.16v-2.97c6.2.16,8.69-1.83,8.69-5.09,0-2.48-1.63-3.99-4.53-3.99-1.71,0-3.35.45-4.77,1.22l-.33-3.13c1.71-.73,3.79-1.18,5.91-1.18,5.18,0,7.59,2.85,7.59,6.39,0,3.13-1.79,5.54-4.61,6.55l-.04.08c3.39.73,5.75,3.17,5.75,6.55,0,5.01-4.49,8.59-10.69,8.59Z"/>
  </g>
</svg>