<svg width="562" height="118" viewBox="0 0 281 59" fill="none" xmlns="http://www.w3.org/2000/svg">
<path d="M242.069 16.912L238.149 19.1121L232.012 10.3703C236.778 12.4671 239.933 12.4643 241.689 12.1348L242.069 16.912Z" fill="#BCBEC0"/>
<path d="M230.098 33.6866L229.999 33.7432L229.957 33.6809L230.098 33.6866Z" fill="#E6E7E8"/>
<path d="M240.05 40.6359L236.331 42.7578L230.041 33.8038C234.765 35.8643 237.897 35.8587 239.642 35.5292L240.05 40.6387V40.6359Z" fill="#BCBEC0"/>
<path d="M266.708 9.97661L220.869 36.0569C220.869 36.0569 217.544 38.634 210.078 34.8564L238.149 19.1121L242.069 16.912L256.015 9.09154C256.015 9.09154 258.33 7.60618 262.124 8.63085L266.708 9.97382V9.97661Z" fill="white"/>
<path d="M258.489 2.6252L243.392 11.5541C243.392 11.5541 242.845 11.9171 241.689 12.1321C239.933 12.4615 236.778 12.4643 232.012 10.3675L247.502 1.67312C247.502 1.67312 249.16 0.330154 252.324 1.03933L258.489 2.62241V2.6252Z" fill="white"/>
<path d="M280.934 24.2969L222.257 58.1419C222.257 58.1419 218.931 60.7189 211.465 56.9413L236.331 42.7578L240.05 40.6359L270.243 23.4146C270.243 23.4146 272.56 21.9265 276.352 22.954L280.937 24.2969H280.934Z" fill="white"/>
<path d="M256.434 26.0196L241.337 34.9513C241.337 34.9513 240.793 35.3115 239.64 35.5292C237.897 35.8587 234.762 35.8671 230.038 33.8038L229.996 33.7423L230.094 33.6865L245.444 25.0703C245.444 25.0703 247.103 23.7273 250.263 24.4393L256.431 26.0196H256.434Z" fill="white"/>
<path d="M230.041 33.8043C230.013 33.7931 229.985 33.779 229.957 33.7677L229.999 33.7451L230.041 33.8072V33.8043Z" fill="url(#paint0_linear_1_135)"/>
<path d="M184.103 45.1952C183.135 45.1952 182.395 46.0245 182.395 48.2525C182.395 50.4805 182.976 51.3433 184.078 51.3433C185.047 51.3433 185.776 50.514 185.776 48.286C185.776 46.058 185.206 45.1952 184.103 45.1952ZM184.103 45.1952C183.135 45.1952 182.395 46.0245 182.395 48.2525C182.395 50.4805 182.976 51.3433 184.078 51.3433C185.047 51.3433 185.776 50.514 185.776 48.286C185.776 46.058 185.206 45.1952 184.103 45.1952ZM173.016 43.0147V53.7975H200.909V43.0147H173.016ZM179.628 52.1055H175.152V51.2651L176.599 49.6038C177.897 48.1269 178.226 47.3674 178.226 46.5605C178.226 45.8318 177.794 45.2427 176.883 45.2427C176.381 45.2427 175.811 45.4354 175.378 45.7062L175.23 44.7764C175.755 44.514 176.37 44.3325 177.157 44.3325C178.589 44.3325 179.343 45.2315 179.343 46.4014C179.343 47.4568 178.852 48.4228 177.475 49.9808L176.462 51.1618V51.173C177.143 51.1395 178.33 51.1283 179.628 51.1283V52.1055ZM184 52.206C182.358 52.206 181.3 51.1283 181.3 48.3446C181.3 45.561 182.587 44.3437 184.17 44.3437C185.754 44.3437 186.87 45.413 186.87 48.1967C186.87 50.9803 185.583 52.206 184 52.206ZM192.792 52.1055H188.317V51.2651L189.763 49.6038C191.061 48.1269 191.391 47.3674 191.391 46.5605C191.391 45.8318 190.958 45.2427 190.048 45.2427C189.545 45.2427 188.976 45.4354 188.543 45.7062L188.395 44.7764C188.92 44.514 189.534 44.3325 190.321 44.3325C191.756 44.3325 192.507 45.2315 192.507 46.4014C192.507 47.4568 192.016 48.4228 190.64 49.9808L189.626 51.1618V51.173C190.31 51.1395 191.494 51.1283 192.792 51.1283V52.1055ZM195.819 52.1948C195.353 52.1948 194.875 52.1502 194.579 52.072L194.694 51.1506C195.001 51.2539 195.445 51.3098 195.877 51.3098C197.017 51.3098 197.698 50.6732 197.698 49.8551C197.698 49.0371 197.017 48.515 195.696 48.515C195.434 48.515 195.205 48.5373 194.99 48.5596V47.7304C196.721 47.7751 197.416 47.2195 197.416 46.3093C197.416 45.6168 196.958 45.1952 196.151 45.1952C195.674 45.1952 195.216 45.3209 194.819 45.5387L194.727 44.662C195.205 44.4581 195.785 44.3325 196.377 44.3325C197.824 44.3325 198.496 45.1282 198.496 46.1166C198.496 46.9905 197.997 47.6634 197.209 47.9454L197.198 47.9677C198.145 48.1743 198.804 48.8556 198.804 49.7993C198.804 51.1953 197.55 52.1948 195.819 52.1948ZM184.103 45.1952C183.135 45.1952 182.395 46.0245 182.395 48.2525C182.395 50.4805 182.976 51.3433 184.078 51.3433C185.047 51.3433 185.776 50.514 185.776 48.286C185.776 46.058 185.206 45.1952 184.103 45.1952ZM184.103 45.1952C183.135 45.1952 182.395 46.0245 182.395 48.2525C182.395 50.4805 182.976 51.3433 184.078 51.3433C185.047 51.3433 185.776 50.514 185.776 48.286C185.776 46.058 185.206 45.1952 184.103 45.1952ZM184.103 45.1952C183.135 45.1952 182.395 46.0245 182.395 48.2525C182.395 50.4805 182.976 51.3433 184.078 51.3433C185.047 51.3433 185.776 50.514 185.776 48.286C185.776 46.058 185.206 45.1952 184.103 45.1952Z" fill="white"/>
<path d="M0 24.1434L0.159145 23.0433C0.594702 23.2024 1.07214 23.289 1.611 23.289C2.81436 23.289 3.54029 22.7111 3.54029 20.8125V13.8184H4.87488V20.6952C4.87488 22.7501 4.12103 24.3444 1.51049 24.3444C0.974418 24.3444 0.438349 24.2578 0.00279262 24.1406L0 24.1434Z" fill="white"/>
<path d="M23.3693 10.9399C22.9337 10.9399 22.5987 11.2889 22.5987 11.7077C22.5987 12.16 22.9337 12.4894 23.3693 12.4894C23.8048 12.4894 24.1371 12.1404 24.1371 11.7077C24.1371 11.2749 23.7881 10.9399 23.3693 10.9399ZM22.2971 9.27582C21.8755 9.27582 21.5572 9.60807 21.5572 10.0269C21.5572 10.4457 21.8755 10.764 22.2971 10.764C22.7187 10.764 23.023 10.4317 23.023 10.0269C23.023 9.62203 22.7048 9.27582 22.2971 9.27582ZM21.225 10.9399C20.7894 10.9399 20.4544 11.2889 20.4544 11.7077C20.4544 12.16 20.7894 12.4894 21.225 12.4894C21.6605 12.4894 21.9928 12.1404 21.9928 11.7077C21.9928 11.2749 21.6605 10.9399 21.225 10.9399Z" fill="white"/>
<path d="M28.2162 10.9399C27.7779 10.9399 27.4289 11.2889 27.4289 11.7077C27.4289 12.16 27.7779 12.4894 28.2162 12.4894C28.6546 12.4894 28.9701 12.1404 28.9701 11.7077C28.9701 11.2749 28.635 10.9399 28.2162 10.9399ZM26.0664 10.9399C25.6308 10.9399 25.2986 11.2889 25.2986 11.7077C25.2986 12.16 25.6308 12.4894 26.0664 12.4894C26.5019 12.4894 26.837 12.1404 26.837 11.7077C26.837 11.2749 26.488 10.9399 26.0664 10.9399Z" fill="white"/>
<path d="M40.1801 13.3298L38.8762 13.5588C39.1526 14.617 39.3564 15.9795 39.3564 17.5542C39.3564 18.093 39.3117 18.9474 39.2391 19.5672H38.5691C37.0307 19.5672 36.6537 19.1037 36.6537 17.5988V14.1088H35.3638V17.6575C35.3638 18.8888 35.0567 19.6677 34.0125 19.6677C32.9683 19.6677 32.65 18.8999 32.65 17.6575V14.6895H31.3154V17.5402C31.3154 19.1037 30.8519 19.5672 29.8189 19.5672H28.0347V13.8184H26.7002V19.5672H23.1906V13.8184H21.856V19.5672H18.5056V17.0935C18.5056 14.8766 17.4893 13.6621 15.3143 13.6621C13.0081 13.6621 11.774 15.3122 11.774 17.4425C11.774 19.1512 11.2379 19.57 10.498 19.57H8.84515V10.4178H7.51056V20.6254H10.4394C11.3663 20.6254 12.0504 20.1898 12.3687 19.3941C12.8154 20.1759 13.7144 20.6254 15.3841 20.6254H29.8049C30.9189 20.6254 31.4997 20.1898 31.7621 19.4667C31.9799 20.2206 32.6472 20.7427 33.8087 20.7427C34.7524 20.7427 35.5648 20.2959 35.8552 19.4667C36.1568 20.2792 36.9134 20.6254 38.2927 20.6254H40.4537C40.5989 19.6566 40.6854 18.4253 40.6854 17.4425C40.6854 15.8622 40.4676 14.4159 40.1773 13.3298H40.1801ZM17.2045 19.5672H15.5656C13.8094 19.5672 13.1142 18.8413 13.1142 17.3085C13.1142 15.6863 13.9266 14.7175 15.2193 14.7175C16.5121 14.7175 17.2073 15.4434 17.2073 17.3085V19.5672H17.2045Z" fill="white"/>
<path d="M45.8228 23.5068C45.1555 23.5068 44.8651 23.303 44.8651 22.9847C44.8651 22.6943 45.1136 22.5072 45.5491 22.5072C45.7948 22.5072 46.0545 22.5519 46.2304 22.5938L46.3616 21.7813C46.1718 21.7394 45.8814 21.7115 45.5631 21.7115C44.4323 21.7115 43.8683 22.3034 43.8683 23.0126C43.8683 23.2611 43.9856 23.4649 44.128 23.5487C43.8963 23.5068 43.6059 23.5068 43.2876 23.5068V24.3025H46.6799V23.5068H45.8228ZM43.8209 10.334L42.4863 10.5211L44.7925 18.2689H46.1383L43.8181 10.3368L43.8209 10.334Z" fill="white"/>
<path d="M53.6851 10.4178V20.6254H43.1117V19.5672H47.5957V10.4178H48.9414V19.5672H52.3505V10.4178H53.6851Z" fill="white"/>
<path d="M63.8676 10.9399C63.4321 10.9399 63.0859 11.2889 63.0859 11.7077C63.0859 12.16 63.4349 12.4894 63.8676 12.4894C64.3004 12.4894 64.6215 12.1404 64.6215 11.7077C64.6215 11.2749 64.2892 10.9399 63.8676 10.9399ZM61.7206 10.9399C61.285 10.9399 60.9528 11.2889 60.9528 11.7077C60.9528 12.16 61.285 12.4894 61.7206 12.4894C62.1561 12.4894 62.4912 12.1404 62.4912 11.7077C62.4912 11.2749 62.1422 10.9399 61.7206 10.9399Z" fill="white"/>
<path d="M70.5992 22.013C70.1636 22.013 69.8174 22.362 69.8174 22.7808C69.8174 23.2332 70.1664 23.5626 70.5992 23.5626C71.032 23.5626 71.353 23.2136 71.353 22.7808C71.353 22.3481 71.0208 22.013 70.5992 22.013ZM68.4521 22.013C68.0166 22.013 67.6815 22.362 67.6815 22.7808C67.6815 23.2332 68.0166 23.5626 68.4521 23.5626C68.8877 23.5626 69.2199 23.2136 69.2199 22.7808C69.2199 22.3481 68.8709 22.013 68.4521 22.013Z" fill="white"/>
<path d="M74.8933 10.4178V19.57H71.4675V13.8212H70.1329V19.57H65.8248V14.1702C65.8248 14.1702 64.5042 13.6649 62.9099 13.6649C60.4278 13.6649 59.2552 15.3429 59.2552 17.2554C59.2552 19.3104 60.2715 20.6282 63.0551 20.6282H76.2279V10.4205H74.8933V10.4178ZM64.521 19.57H63.245C61.3715 19.57 60.6037 18.7575 60.6037 17.1074C60.6037 15.6723 61.419 14.7203 62.7648 14.7203C63.809 14.7203 64.521 15.0525 64.521 15.0525V19.57Z" fill="white"/>
<path d="M98.9131 10.9399C98.4776 10.9399 98.1425 11.2889 98.1425 11.7077C98.1425 12.16 98.4776 12.4894 98.9131 12.4894C99.3487 12.4894 99.6837 12.1404 99.6837 11.7077C99.6837 11.2749 99.3347 10.9399 98.9131 10.9399ZM97.841 9.27582C97.4194 9.27582 97.1011 9.60807 97.1011 10.0269C97.1011 10.4457 97.4194 10.764 97.841 10.764C98.2626 10.764 98.5669 10.4317 98.5669 10.0269C98.5669 9.62203 98.2486 9.27582 97.841 9.27582ZM96.7689 10.9399C96.3333 10.9399 95.9983 11.2889 95.9983 11.7077C95.9983 12.16 96.3333 12.4894 96.7689 12.4894C97.2044 12.4894 97.5367 12.1404 97.5367 11.7077C97.5367 11.2749 97.2044 10.9399 96.7689 10.9399Z" fill="white"/>
<path d="M105.918 10.4178V19.57H102.481C102.54 18.8608 102.585 18.093 102.585 17.4425C102.585 15.8622 102.367 14.4159 102.077 13.3298L100.773 13.5588C101.049 14.617 101.253 15.9795 101.253 17.5542C101.253 18.093 101.208 18.9474 101.136 19.5672H100.468C98.9271 19.5672 98.553 19.1037 98.553 17.5988V14.1088H97.2603V17.6575C97.2603 18.8888 96.9531 19.6677 95.9089 19.6677C94.8647 19.6677 94.5464 18.8999 94.5464 17.6575V14.6895H93.2118V17.5402C93.2118 19.1037 92.7483 19.5672 91.7153 19.5672H89.9759V17.0935C89.9759 14.8766 88.9596 13.6621 86.7846 13.6621C84.4784 13.6621 83.2443 15.3122 83.2443 17.4425C83.2443 19.1512 82.7082 19.57 81.9683 19.57H80.3154V10.4178H78.9809V20.6254H81.9097C82.8367 20.6254 83.5207 20.1898 83.839 19.3941C84.2913 20.1759 85.1903 20.6254 86.8544 20.6254H91.7013C92.8153 20.6254 93.3989 20.1898 93.6613 19.4667C93.8763 20.2206 94.5436 20.7427 95.7051 20.7427C96.6488 20.7427 97.4613 20.2959 97.7517 19.4667C98.0532 20.2792 98.8126 20.6254 100.189 20.6254H107.256V10.4178H105.918ZM88.672 19.57H87.0331C85.2797 19.57 84.5845 18.8441 84.5845 17.3113C84.5845 15.6891 85.3969 14.7203 86.6841 14.7203C87.9712 14.7203 88.672 15.4462 88.672 17.3113V19.57Z" fill="white"/>
<path d="M110.011 10.4178H111.346V20.6254H110.011V10.4178Z" fill="white"/>
<path d="M117.017 19.5672H121.674C121.629 16.9176 120.585 15.4406 118.019 14.6588L118.351 13.5281C121.498 14.4969 122.992 16.2642 122.992 19.8995V20.6226H117.017V19.5644V19.5672Z" fill="white"/>
<path d="M124.647 24.0708L124.734 22.9567C124.734 22.9567 125.951 23.2331 127.054 23.2331C128.634 23.2331 129.824 22.6384 129.824 20.9744V20.6282H128.358C125.574 20.6282 124.558 19.3103 124.558 17.2554C124.558 15.3457 125.733 13.6649 128.213 13.6649C129.807 13.6649 131.128 14.173 131.128 14.173V20.9046C131.128 22.5994 130.025 24.2913 126.906 24.2913C125.789 24.2913 124.644 24.0735 124.644 24.0735L124.647 24.0708ZM129.826 15.0525C129.826 15.0525 129.114 14.7203 128.07 14.7203C126.722 14.7203 125.909 15.6751 125.909 17.1102C125.909 18.7603 126.677 19.57 128.548 19.57H129.824V15.0525H129.826Z" fill="white"/>
<path d="M151.844 10.4177V20.6254H133.149V19.5672H137.806C137.761 16.9176 136.717 15.4434 134.149 14.6588L134.484 13.5281C137.53 14.469 139.037 16.1637 139.124 19.5672H146.029C146.087 19.0619 146.132 18.5509 146.132 18.0763C146.132 15.8901 145.333 14.818 142.955 14.818C142.374 14.818 141.882 14.8459 141.344 14.9213V13.8771C141.824 13.8073 142.432 13.7598 143.072 13.7598C146.263 13.7598 147.45 15.2228 147.45 17.9758C147.45 18.4225 147.422 18.9586 147.363 19.5672H150.513V10.415H151.847L151.844 10.4177Z" fill="white"/>
<path d="M154.603 10.4178H155.938V20.6254H154.603V10.4178Z" fill="white"/>
<path d="M166.843 20.6254C163.174 20.6254 161.753 19.1624 161.753 16.4122C161.753 15.5439 161.971 14.5723 162.231 14.0083L163.652 13.7626C163.32 14.4439 163.102 15.4434 163.102 16.2531C163.102 18.4532 163.973 19.5672 167.002 19.5672H168.234V13.9357C168.234 13.9357 169.51 13.6593 170.889 13.6593C173.312 13.6593 174.125 14.8459 174.125 16.831V18.7715H172.818V17.0041C172.818 15.354 172.223 14.7175 170.758 14.7175C170.163 14.7175 169.54 14.8319 169.54 14.8319V20.6226H166.843V20.6254Z" fill="white"/>
<path d="M186.63 10.9399C186.195 10.9399 185.848 11.2889 185.848 11.7077C185.848 12.16 186.197 12.4894 186.63 12.4894C187.063 12.4894 187.384 12.1404 187.384 11.7077C187.384 11.2749 187.052 10.9399 186.63 10.9399ZM184.483 10.9399C184.048 10.9399 183.713 11.2889 183.713 11.7077C183.713 12.16 184.048 12.4894 184.483 12.4894C184.919 12.4894 185.254 12.1404 185.254 11.7077C185.254 11.2749 184.902 10.9399 184.483 10.9399Z" fill="white"/>
<path d="M190.52 10.6942C190.084 10.6942 189.732 11.0543 189.732 11.4899C189.732 11.9254 190.084 12.2717 190.52 12.2717C190.955 12.2717 191.315 11.9226 191.315 11.4899C191.315 11.0571 190.955 10.6942 190.52 10.6942Z" fill="white"/>
<path d="M197.67 13.6621C195.364 13.6621 194.13 15.3122 194.13 17.4425C194.13 19.1512 193.594 19.57 192.854 19.57H191.187V13.8212H189.852V19.57H186.457V13.8212H185.123V19.57H182.09C182.004 16.1665 180.496 14.4718 177.45 13.5309L177.115 14.6616C179.684 15.4434 180.728 16.9204 180.77 19.57H176.113V20.6282H192.795C193.722 20.6282 194.406 20.1926 194.724 19.3969C195.177 20.1787 196.076 20.6282 197.74 20.6282H200.858V17.0963C200.858 14.8794 199.842 13.6649 197.667 13.6649L197.67 13.6621ZM199.555 19.57H197.916C196.162 19.57 195.467 18.8441 195.467 17.3113C195.467 15.6891 196.279 14.7203 197.567 14.7203C198.854 14.7203 199.555 15.4462 199.555 17.3113V19.57Z" fill="white"/>
<path d="M5.76274 36.2635L2.85066 31.4585C2.52678 30.9252 2.27271 30.4589 2.06052 29.9815C2.10519 30.7688 2.13869 32.8992 2.13869 34.1779V36.2635H1.15031V28.7725H2.50724L5.38582 33.4883C5.67619 33.9769 5.96377 34.5101 6.20947 35.0099C6.17596 34.0774 6.13129 31.9806 6.13129 30.6823V28.7725H7.11967V36.2635H5.76274Z" fill="white"/>
<path d="M11.8773 36.3752C9.62133 36.3752 8.52965 34.8759 8.52965 32.6116C8.52965 30.1043 10.1295 28.6608 12.0867 28.6608C14.3454 28.6608 15.4343 30.1602 15.4343 32.4245C15.4343 34.9317 13.8233 36.3752 11.8773 36.3752ZM11.989 29.5599C10.6879 29.5599 9.62133 30.6041 9.62133 32.4552C9.62133 34.3063 10.3891 35.4622 11.9778 35.4622C13.2789 35.4622 14.3454 34.4292 14.3454 32.5781C14.3454 30.7269 13.5665 29.5599 11.989 29.5599Z" fill="white"/>
<path d="M20.46 36.2635L18.003 32.9131H17.869V36.2635H16.8471V28.7725C17.358 28.739 17.9025 28.7278 18.7261 28.7278C20.2059 28.7278 21.2725 29.25 21.2725 30.6823C21.2725 31.9582 20.2617 32.7009 19.0695 32.7902C19.2929 33.0555 19.5246 33.3459 19.7145 33.5888L21.7611 36.2635H20.46ZM18.5474 29.5599C18.2906 29.5599 18.07 29.571 17.869 29.5822V32.1341C17.9807 32.1453 18.204 32.1565 18.5028 32.1565C19.5805 32.1565 20.2031 31.612 20.2031 30.8135C20.2031 29.9145 19.6363 29.5599 18.5474 29.5599Z" fill="white"/>
<path d="M25.0975 29.6269V36.2635H24.0757V29.6269H21.9174V28.7725H27.2669V29.6269H25.0975Z" fill="white"/>
<path d="M33.2475 36.2635V32.8126H29.4224V36.2635H28.4005V28.7725H29.4224V31.9471H33.2475V28.7725H34.2694V36.2635H33.2475Z" fill="white"/>
<path d="M36.3689 36.2635V28.7725H40.2275V29.6157H37.3908V31.9917H40.0935V32.8126H37.3908V35.4092H40.2275V36.2635H36.3689Z" fill="white"/>
<path d="M46.5543 36.2635L43.6422 31.4585C43.3183 30.9252 43.0642 30.4589 42.852 29.9815C42.8967 30.7688 42.9302 32.8992 42.9302 34.1779V36.2635H41.9418V28.7725H43.2988L46.1773 33.4883C46.4677 33.9769 46.7553 34.5101 47.001 35.0099C46.9675 34.0774 46.9228 31.9806 46.9228 30.6823V28.7725H47.9112V36.2635H46.5543Z" fill="white"/>
<path d="M54.4278 36.297C53.8833 36.297 53.2495 36.2747 52.5152 36.2635V28.7725C53.0597 28.7614 53.8052 28.739 54.707 28.739C56.318 28.739 57.1081 29.4147 57.1081 30.5371C57.1081 31.3244 56.6419 32.0029 55.8182 32.2793V32.3017C56.7312 32.4245 57.3427 33.1002 57.3427 34.0215C57.3427 35.0434 56.653 36.297 54.4306 36.297H54.4278ZM54.5395 29.5487C54.1849 29.5487 53.8275 29.5599 53.5399 29.5711V32.0001C53.7521 32.0113 53.9503 32.0113 54.2184 32.0113C55.4524 32.0113 56.0416 31.5227 56.0416 30.7018C56.0416 30.0373 55.687 29.5487 54.5395 29.5487ZM54.2407 32.7791C54.1179 32.7791 53.7186 32.7791 53.5399 32.7903V35.4203C53.7409 35.4427 54.1737 35.4762 54.4948 35.4762C55.7177 35.4762 56.2621 34.8647 56.2621 34.0774C56.2621 33.1337 55.4608 32.7791 54.2379 32.7791H54.2407Z" fill="white"/>
<path d="M61.7987 36.3752C59.5428 36.3752 58.4511 34.8759 58.4511 32.6116C58.4511 30.1043 60.0509 28.6608 62.0081 28.6608C64.2669 28.6608 65.3558 30.1602 65.3558 32.4245C65.3558 34.9317 63.7448 36.3752 61.7987 36.3752ZM61.9104 29.5599C60.6093 29.5599 59.5428 30.6041 59.5428 32.4552C59.5428 34.3063 60.3106 35.4622 61.8992 35.4622C63.2003 35.4622 64.2669 34.4292 64.2669 32.5781C64.2669 30.7269 63.4879 29.5599 61.9104 29.5599Z" fill="white"/>
<path d="M70.3814 36.2635L67.9245 32.9131H67.7904V36.2635H66.7685V28.7725C67.2795 28.739 67.8239 28.7278 68.6476 28.7278C70.1274 28.7278 71.1939 29.25 71.1939 30.6823C71.1939 31.9582 70.1832 32.7009 68.9938 32.7902C69.2172 33.0555 69.4489 33.3459 69.6388 33.5888L71.6853 36.2635H70.3842H70.3814ZM68.4689 29.5599C68.212 29.5599 67.9915 29.571 67.7904 29.5822V32.1341C67.9021 32.1453 68.1227 32.1565 68.4242 32.1565C69.5019 32.1565 70.1246 31.612 70.1246 30.8135C70.1246 29.9145 69.5578 29.5599 68.4689 29.5599Z" fill="white"/>
<path d="M74.938 36.3082C74.1814 36.3082 73.5923 36.2635 73.0366 36.2635V28.7837C73.6146 28.7725 74.4606 28.739 75.2814 28.739C77.6826 28.739 79.1177 29.8586 79.1177 32.4357C79.1177 35.0127 77.395 36.3082 74.938 36.3082ZM75.1837 29.5711C74.7956 29.5711 74.3377 29.5934 74.0613 29.6046V35.3757C74.3405 35.4204 74.7509 35.4427 75.0497 35.4427C76.8059 35.4427 78.04 34.5325 78.04 32.5027C78.04 30.5929 77.1298 29.5738 75.1837 29.5738V29.5711Z" fill="white"/>
<path d="M80.5751 36.2635V28.7725H84.4337V29.6157H81.597V31.9917H84.2997V32.8126H81.597V35.4092H84.4337V36.2635H80.5751Z" fill="white"/>
<path d="M89.7609 36.2635L87.3039 32.9131H87.1699V36.2635H86.148V28.7725C86.6589 28.739 87.2034 28.7278 88.027 28.7278C89.5068 28.7278 90.5734 29.25 90.5734 30.6823C90.5734 31.9582 89.5626 32.7009 88.3732 32.7902C88.5966 33.0555 88.8283 33.3459 89.0182 33.5888L91.0647 36.2635H89.7637H89.7609ZM87.8483 29.5599C87.5915 29.5599 87.3709 29.571 87.1699 29.5822V32.1341C87.2816 32.1453 87.5021 32.1565 87.8037 32.1565C88.8814 32.1565 89.504 31.612 89.504 30.8135C89.504 29.9145 88.9372 29.5599 87.8483 29.5599Z" fill="white"/>
<path d="M93.5832 36.3641C92.9717 36.3641 92.4049 36.2859 91.9387 36.1519L92.0615 35.1747C92.539 35.3645 93.0834 35.4734 93.6418 35.4734C94.5101 35.4734 95.264 35.1188 95.264 34.1974C95.264 32.5111 91.8717 33.1756 91.8717 30.7912C91.8717 29.5599 92.807 28.672 94.4962 28.672C94.9289 28.672 95.4315 28.7167 95.8531 28.8172L95.7302 29.7162C95.331 29.5934 94.8731 29.518 94.4403 29.518C93.4184 29.518 92.927 29.9843 92.927 30.6823C92.927 32.2905 96.364 31.7153 96.364 34.0662C96.364 35.4092 95.264 36.3641 93.5832 36.3641Z" fill="white"/>
<path d="M100.555 36.2635V28.7725H101.577V36.2635H100.555Z" fill="white"/>
<path d="M108.294 36.2635L105.382 31.4585C105.058 30.9252 104.804 30.4589 104.592 29.9815C104.637 30.7688 104.67 32.8992 104.67 34.1779V36.2635H103.682V28.7725H105.039L107.917 33.4883C108.208 33.9769 108.495 34.5101 108.741 35.0099C108.708 34.0774 108.663 31.9806 108.663 30.6823V28.7725H109.651V36.2635H108.294Z" fill="white"/>
<path d="M114.565 36.2635H113.421L110.718 28.7725H111.851L113.529 33.5888C113.675 34.0215 113.873 34.6107 114.007 35.1216H114.029C114.163 34.6107 114.35 34.0439 114.551 33.5134L116.274 28.7753H117.329L114.56 36.2663L114.565 36.2635Z" fill="white"/>
<path d="M118.41 36.2635V28.7725H122.268V29.6157H119.432V31.9917H122.134V32.8126H119.432V35.4092H122.268V36.2635H118.41Z" fill="white"/>
<path d="M125.315 36.3641C124.703 36.3641 124.136 36.2859 123.67 36.1519L123.793 35.1747C124.27 35.3645 124.815 35.4734 125.373 35.4734C126.242 35.4734 126.995 35.1188 126.995 34.1974C126.995 32.5111 123.603 33.1756 123.603 30.7912C123.603 29.5599 124.538 28.672 126.228 28.672C126.66 28.672 127.163 28.7167 127.584 28.8172L127.462 29.7162C127.062 29.5934 126.604 29.518 126.172 29.518C125.15 29.518 124.658 29.9843 124.658 30.6823C124.658 32.2905 128.095 31.7153 128.095 34.0662C128.095 35.4092 126.995 36.3641 125.315 36.3641Z" fill="white"/>
<path d="M131.63 29.6269V36.2635H130.608V29.6269H128.45V28.7725H133.8V29.6269H131.63Z" fill="white"/>
<path d="M141.782 36.2635L141.148 31.9247C141.036 31.115 140.958 30.4701 140.914 30.0262H140.891C140.802 30.3919 140.679 30.8917 140.503 31.4361L138.903 36.2635H137.814L136.29 31.746C136.089 31.1458 135.924 30.5483 135.813 30.0262H135.79C135.757 30.6488 135.69 31.2798 135.589 32.0141L135.078 36.2663H134.034L135.134 28.7753H136.379L137.971 33.5022C138.105 33.8791 138.272 34.4794 138.404 34.9904H138.415C138.549 34.4683 138.683 34.002 138.825 33.5692L140.45 28.7753H141.718L142.851 36.2663H141.785L141.782 36.2635Z" fill="white"/>
<path d="M144.328 36.2635V28.7725H148.187V29.6157H145.35V31.9917H148.053V32.8126H145.35V35.4092H148.187V36.2635H144.328Z" fill="white"/>
<path d="M154.511 36.2635L151.599 31.4585C151.278 30.9252 151.021 30.4589 150.809 29.9815C150.853 30.7688 150.887 32.8992 150.887 34.1779V36.2635H149.898V28.7725H151.255L154.137 33.4883C154.424 33.9769 154.715 34.5101 154.96 35.0099C154.927 34.0774 154.882 31.9806 154.882 30.6823V28.7725H155.87V36.2635H154.514H154.511Z" fill="white"/>
<path d="M160.193 29.6269V36.2635H159.171V29.6269H157.012V28.7725H162.362V29.6269H160.193Z" fill="white"/>
<path d="M167.231 29.6157V32.0448H169.889V32.8656H167.231V36.2607H166.209V28.7697H170.034V29.6129H167.231V29.6157Z" fill="white"/>
<path d="M174.278 36.3752C172.02 36.3752 170.931 34.8759 170.931 32.6116C170.931 30.1043 172.53 28.6608 174.488 28.6608C176.746 28.6608 177.835 30.1602 177.835 32.4245C177.835 34.9317 176.224 36.3752 174.278 36.3752ZM174.39 29.5599C173.089 29.5599 172.022 30.6041 172.022 32.4552C172.022 34.3063 172.79 35.4622 174.379 35.4622C175.68 35.4622 176.746 34.4292 176.746 32.5781C176.746 30.7269 175.967 29.5599 174.39 29.5599Z" fill="white"/>
<path d="M182.864 36.2635L180.407 32.9131H180.273V36.2635H179.251V28.7725C179.762 28.739 180.306 28.7278 181.13 28.7278C182.61 28.7278 183.676 29.25 183.676 30.6823C183.676 31.9582 182.666 32.7009 181.476 32.7902C181.7 33.0555 181.931 33.3459 182.121 33.5888L184.168 36.2635H182.867H182.864ZM180.951 29.5599C180.694 29.5599 180.474 29.571 180.273 29.5822V32.1341C180.385 32.1453 180.605 32.1565 180.907 32.1565C181.984 32.1565 182.607 31.612 182.607 30.8135C182.607 29.9145 182.04 29.5599 180.951 29.5599Z" fill="white"/>
<path d="M188.211 36.3752C185.865 36.3752 185.396 35.0769 185.396 33.7451V28.7725H186.418V33.667C186.418 34.7 186.761 35.532 188.275 35.532C189.587 35.532 190.198 34.9876 190.198 33.4799V28.7753H191.198V33.4045C191.198 35.3701 190.165 36.378 188.208 36.378L188.211 36.3752Z" fill="white"/>
<path d="M200.331 36.2635L199.697 31.9247C199.585 31.115 199.507 30.4701 199.462 30.0262H199.44C199.351 30.3919 199.228 30.8917 199.052 31.4361L197.452 36.2635H196.363L194.839 31.746C194.638 31.1458 194.47 30.5483 194.361 30.0262H194.339C194.306 30.6488 194.239 31.2798 194.138 32.0141L193.627 36.2663H192.583L193.683 28.7753H194.928L196.517 33.5022C196.651 33.8791 196.818 34.4794 196.95 34.9904H196.961C197.095 34.4683 197.229 34.002 197.371 33.5692L198.993 28.7753H200.261L201.394 36.2663H200.328L200.331 36.2635Z" fill="white"/>
<path d="M148.983 44.3523H147.785L144.965 52.1057H146.048L146.693 50.2909H149.996L150.641 52.1057H151.825L148.983 44.3523ZM146.958 49.4505L148.005 46.5245C148.131 46.1671 148.234 45.8236 148.326 45.4886H148.349C148.441 45.8236 148.547 46.1671 148.684 46.5468L149.72 49.4505H146.958Z" fill="white"/>
<path d="M155.879 49.3358C155.683 49.0845 155.441 48.7858 155.212 48.5094C156.443 48.4172 157.49 47.6494 157.49 46.3288C157.49 44.8462 156.384 44.3046 154.854 44.3046C154.003 44.3046 153.439 44.3185 152.908 44.352V52.1055H153.966V48.635H154.106L156.649 52.1055H157.995L155.879 49.3358ZM153.966 47.8309V45.1897C154.176 45.1785 154.405 45.1673 154.67 45.1673C155.798 45.1673 156.384 45.5359 156.384 46.4656C156.384 47.292 155.739 47.856 154.622 47.856C154.313 47.856 154.084 47.8449 153.966 47.8309Z" fill="white"/>
<path d="M162.348 44.3521H161.15L158.33 52.1055H159.411L160.056 50.2907H163.359L164.004 52.1055H165.19L162.348 44.3521ZM160.321 49.4503L161.368 46.5242C161.496 46.1669 161.6 45.8234 161.692 45.4884H161.714C161.806 45.8234 161.91 46.1669 162.049 46.5466L163.085 49.4503H160.321Z" fill="white"/>
<path d="M169.242 49.3358C169.046 49.0845 168.803 48.7858 168.574 48.5094C169.805 48.4172 170.853 47.6494 170.853 46.3288C170.853 44.8462 169.75 44.3046 168.217 44.3046C167.365 44.3046 166.801 44.3185 166.274 44.352V52.1055H167.332V48.635H167.469L170.012 52.1055H171.361L169.242 49.3358ZM167.332 47.8309V45.1897C167.538 45.1785 167.767 45.1673 168.033 45.1673C169.161 45.1673 169.75 45.5359 169.75 46.4656C169.75 47.292 169.105 47.856 167.988 47.856C167.678 47.856 167.446 47.8449 167.332 47.8309Z" fill="white"/>
<defs>
<linearGradient id="paint0_linear_1_135" x1="229.957" y1="33.7733" x2="230.041" y2="33.7733" gradientUnits="userSpaceOnUse">
<stop stop-color="#A98866"/>
<stop offset="1" stop-color="#E5C78D"/>
</linearGradient>
</defs>
</svg>
